<svg width="16" height="16" viewBox="0 0 16 16" fill="none" xmlns="http://www.w3.org/2000/svg">
<path id="Vector" d="M11.8094 7.71798C12.1272 7.72194 12.4427 7.66179 12.7371 7.54109C13.0315 7.42038 13.2988 7.24157 13.5235 7.01519L15.7692 4.75508C15.917 4.60545 16 4.40304 16 4.19205C16 3.98107 15.917 3.77865 15.7692 3.62902C15.6955 3.55417 15.6077 3.49475 15.511 3.45421C15.4143 3.41366 15.3106 3.39279 15.2058 3.39279C15.1011 3.39279 14.9973 3.41366 14.9006 3.45421C14.8039 3.49475 14.7162 3.55417 14.6424 3.62902L12.3728 5.88114C12.299 5.956 12.2113 6.01541 12.1146 6.05595C12.0179 6.0965 11.9141 6.11737 11.8094 6.11737C11.7046 6.11737 11.6009 6.0965 11.5042 6.05595C11.4075 6.01541 11.3197 5.956 11.2459 5.88114L14.0551 3.062C14.1291 2.98754 14.1878 2.89914 14.2279 2.80185C14.2679 2.70456 14.2885 2.60028 14.2885 2.49498C14.2885 2.38967 14.2679 2.28539 14.2279 2.1881C14.1878 2.09081 14.1291 2.00241 14.0551 1.92795C13.9812 1.85349 13.8933 1.79442 13.7966 1.75412C13.7 1.71382 13.5964 1.69308 13.4917 1.69308C13.3871 1.69308 13.2835 1.71382 13.1868 1.75412C13.0901 1.79442 13.0023 1.85349 12.9283 1.92795L10.127 4.75508C9.97922 4.60545 9.89626 4.40304 9.89626 4.19205C9.89626 3.98107 9.97922 3.77865 10.127 3.62902L12.3728 1.36891C12.4468 1.29445 12.5055 1.20605 12.5455 1.10876C12.5856 1.01147 12.6062 0.907198 12.6062 0.801892C12.6062 0.696586 12.5856 0.592311 12.5455 0.495021C12.5055 0.397731 12.4468 0.309331 12.3728 0.234869C12.2988 0.160406 12.211 0.101339 12.1143 0.0610404C12.0176 0.0207416 11.914 -2.07583e-09 11.8094 0C11.7047 2.07583e-09 11.6011 0.0207416 11.5044 0.0610404C11.4078 0.101339 11.3199 0.160406 11.2459 0.234869L9.00016 2.49498C8.55434 2.9442 8.30393 3.55315 8.30393 4.18806C8.30393 4.82297 8.55434 5.43191 9.00016 5.88114L7.96854 6.91137L1.40579 0.282786L1.32643 0.234869C1.28586 0.19925 1.24043 0.169666 1.19152 0.14702L1.04868 0.0911163L0.953457 0.0272265H0.897907H0.739195C0.691882 0.0196128 0.643667 0.0196128 0.596354 0.0272265C0.548313 0.0448235 0.502916 0.0690105 0.461449 0.0991026L0.334479 0.178965H0.27893L0.231316 0.258827C0.197729 0.300994 0.168482 0.346482 0.144025 0.394594C0.120784 0.443292 0.102184 0.494099 0.0884751 0.546332C0.0884751 0.546332 0.0884751 0.602236 0.0884751 0.634181C-0.104094 1.98498 0.0186815 3.36236 0.447067 4.6571C0.875453 5.95184 1.59767 7.12835 2.55645 8.09333L4.65145 10.1937L0.358286 14.5063C0.283907 14.5805 0.22487 14.6689 0.184582 14.7662C0.144294 14.8635 0.123552 14.9679 0.123552 15.0733C0.123552 15.1787 0.144294 15.2831 0.184582 15.3804C0.22487 15.4778 0.283907 15.5661 0.358286 15.6403C0.432436 15.7143 0.520375 15.7729 0.617061 15.8126C0.713746 15.8524 0.817276 15.8725 0.921714 15.8719C1.02615 15.8725 1.12968 15.8524 1.22637 15.8126C1.32305 15.7729 1.41099 15.7143 1.48514 15.6403L6.30206 10.8646L8.54783 8.60445L10.135 7.0072C10.5777 7.45762 11.1798 7.71319 11.8094 7.71798ZM5.73863 9.17147L3.65156 7.06311C2.50761 5.8961 1.79134 4.37275 1.62005 2.74255L6.86549 8.01347L5.73863 9.17147ZM10.6904 9.62669C10.541 9.47525 10.3379 9.38974 10.1259 9.389C9.91379 9.38825 9.71011 9.47231 9.55962 9.6227C9.40914 9.77308 9.32418 9.97746 9.32344 10.1909C9.3227 10.4043 9.40623 10.6093 9.55566 10.7607L14.5551 15.7921C14.7067 15.9309 14.9057 16.0053 15.1106 15.9997C15.215 16.0003 15.3186 15.9802 15.4152 15.9404C15.5119 15.9007 15.5999 15.8421 15.674 15.7681C15.7484 15.6939 15.8074 15.6055 15.8477 15.5082C15.888 15.4109 15.9087 15.3065 15.9087 15.2011C15.9087 15.0957 15.888 14.9913 15.8477 14.894C15.8074 14.7966 15.7484 14.7083 15.674 14.6341L10.6904 9.62669Z" fill="#266EF1"/>
</svg>
