<svg width="25" height="25" viewBox="0 0 25 25" fill="none" xmlns="http://www.w3.org/2000/svg">
<path d="M20.7133 21.38C20.5133 21.38 20.3233 21.3 20.1833 21.16L13.8033 14.78C13.5133 14.49 13.5133 14.01 13.8033 13.72L21.5333 5.99001C21.7233 5.80001 22.0133 5.73001 22.2733 5.80001C22.5333 5.88001 22.7333 6.09001 22.7933 6.35001C22.9833 7.20001 23.0833 8.15001 23.0833 9.25001V15.25C23.0833 18.02 22.5033 19.89 21.2433 21.16C21.1033 21.3 20.8933 21.33 20.7133 21.38ZM15.3933 14.25L20.6533 19.51C21.2833 18.54 21.5833 17.16 21.5833 15.25V9.25001C21.5833 8.84001 21.5733 8.46001 21.5433 8.10001L15.3933 14.25Z" fill="#292D32"/>
<path d="M6.60336 22.73C6.54336 22.73 6.49338 22.72 6.43338 22.71C3.12338 21.95 1.58337 19.58 1.58337 15.25V9.25C1.58337 3.82 3.90337 1.5 9.33337 1.5H15.3334C19.6634 1.5 22.0334 3.04001 22.7934 6.35001C22.8534 6.60001 22.7734 6.87 22.5934 7.05L7.13336 22.51C6.99336 22.65 6.80336 22.73 6.60336 22.73ZM9.33337 3C4.72337 3 3.08337 4.64 3.08337 9.25V15.25C3.08337 18.72 4.04338 20.46 6.37338 21.15L21.2234 6.3C20.5434 3.97 18.7934 3.00999 15.3234 3.00999H9.33337V3Z" fill="#292D32"/>
<path d="M15.3333 23H9.33326C8.23326 23 7.29327 22.91 6.43327 22.71C6.16327 22.65 5.95325 22.45 5.88325 22.19C5.80325 21.93 5.88325 21.65 6.07325 21.45L13.8033 13.72C14.0933 13.43 14.5733 13.43 14.8633 13.72L21.2433 20.1C21.3833 20.24 21.4633 20.43 21.4633 20.63C21.4633 20.83 21.3833 21.02 21.2433 21.16C19.9733 22.42 18.1033 23 15.3333 23ZM8.18327 21.46C8.54327 21.49 8.92326 21.5 9.33326 21.5H15.3333C17.2533 21.5 18.6233 21.2 19.5933 20.57L14.3333 15.31L8.18327 21.46Z" fill="#292D32"/>
<path d="M9.45332 13.56C8.82332 13.56 8.19331 13.33 7.69331 12.86C6.10331 11.35 5.46333 9.68999 5.84333 8.06999C6.22333 6.40999 7.67332 5.28998 9.45332 5.28998C11.2333 5.28998 12.6833 6.40999 13.0633 8.06999C13.4333 9.69999 12.7933 11.35 11.2033 12.86C10.7133 13.32 10.0833 13.56 9.45332 13.56ZM7.30332 8.39998C6.98332 9.75998 7.90331 10.98 8.73331 11.77C9.14331 12.16 9.77332 12.16 10.1733 11.77C10.9933 10.99 11.9133 9.76998 11.6033 8.39998C11.3333 7.20998 10.2733 6.77998 9.45332 6.77998C8.63332 6.77998 7.58332 7.20998 7.30332 8.39998Z" fill="#292D32"/>
<path d="M9.48328 9.73999C8.93328 9.73999 8.48328 9.28999 8.48328 8.73999C8.48328 8.18999 8.92328 7.73999 9.48328 7.73999H9.49329C10.0433 7.73999 10.4933 8.18999 10.4933 8.73999C10.4933 9.28999 10.0333 9.73999 9.48328 9.73999Z" fill="#292D32"/>
</svg>
