<svg width="25" height="25" viewBox="0 0 25 25" fill="none" xmlns="http://www.w3.org/2000/svg">
<path d="M16.261 7.0576C13.8346 4.63119 9.90063 4.63119 7.47422 7.0576C5.04782 9.48401 5.04782 13.418 7.47422 15.8444C9.90063 18.2708 13.8346 18.2708 16.261 15.8444C18.6874 13.418 18.6874 9.48401 16.261 7.0576ZM6.06001 5.64338C9.26747 2.43593 14.4678 2.43593 17.6752 5.64338C20.6433 8.61148 20.8648 13.2861 18.3397 16.5089L22.4656 20.6348C22.8561 21.0253 22.8561 21.6585 22.4656 22.049C22.0751 22.4395 21.4419 22.4395 21.0514 22.049L16.9255 17.9231C13.7027 20.4482 9.02811 20.2267 6.06001 17.2586C2.85255 14.0512 2.85255 8.85084 6.06001 5.64338Z" fill="black"/>
</svg>
