<svg width="20" height="20" viewBox="0 0 20 20" fill="none" xmlns="http://www.w3.org/2000/svg">
<path fill-rule="evenodd" clip-rule="evenodd" d="M12.5 1.66669C15.2614 1.66669 17.5 3.90526 17.5 6.66669C17.5 9.36535 15.362 11.5647 12.6874 11.6632L12.5 11.6667H8.33333V13.3334H11.6667C12.1269 13.3334 12.5 13.7064 12.5 14.1667C12.5 14.6269 12.1269 15 11.6667 15H8.33333V17.5C8.33333 17.9603 7.96024 18.3334 7.5 18.3334C7.03976 18.3334 6.66667 17.9603 6.66667 17.5V15H3.33333C2.8731 15 2.5 14.6269 2.5 14.1667C2.5 13.7064 2.8731 13.3334 3.33333 13.3334H6.66667V11.6667H3.33333C2.8731 11.6667 2.5 11.2936 2.5 10.8334C2.5 10.406 2.8217 10.0538 3.23615 10.0056L3.33333 10H6.66667V2.50002C6.66667 2.03978 7.03976 1.66669 7.5 1.66669H12.5ZM12.5 3.33335H8.33333V10H12.5C14.3409 10 15.8333 8.50764 15.8333 6.66669C15.8333 4.88152 14.43 3.42412 12.6664 3.33743L12.5 3.33335Z" fill="black"/>
</svg>
