<svg width="16" height="16" viewBox="0 0 16 16" fill="none" xmlns="http://www.w3.org/2000/svg">
<path d="M3.64673 7.16665C3.1734 7.16665 2.6934 6.99331 2.32673 6.63998C1.10006 5.47331 0.606729 4.19998 0.893396 2.95331C1.2334 1.48665 2.52006 0.833313 3.64673 0.833313C4.7734 0.833313 6.06673 1.49331 6.40006 2.95331C6.68673 4.19998 6.18673 5.47331 4.96673 6.63998C4.60006 6.99331 4.12673 7.16665 3.64673 7.16665ZM1.86673 3.17998C1.6134 4.29331 2.3534 5.27998 3.02006 5.91331C3.3734 6.25331 3.92673 6.24665 4.28006 5.91331C4.94673 5.27998 5.68673 4.29331 5.42673 3.17331C5.20006 2.18665 4.32673 1.83331 3.6534 1.83331C2.9734 1.83331 2.10006 2.18665 1.86673 3.17998Z" fill="#266EF1"/>
<path d="M3.67338 4.13332C3.30671 4.13332 3.00671 3.83332 3.00671 3.46665C3.00671 3.09999 3.30005 2.79999 3.67338 2.79999H3.68005C4.04671 2.79999 4.34671 3.09999 4.34671 3.46665C4.34671 3.83332 4.04671 4.13332 3.67338 4.13332Z" fill="#266EF1"/>
<path d="M12.3267 15.1667C11.8533 15.1667 11.3733 14.9933 11 14.64C9.76667 13.4733 9.26667 12.2 9.56 10.9467C9.9 9.48666 11.1933 8.82666 12.3267 8.82666C13.46 8.82666 14.7533 9.48666 15.0933 10.9467C15.38 12.1933 14.88 13.4733 13.6467 14.6333C13.28 14.9933 12.8067 15.1667 12.3267 15.1667ZM12.3267 9.83333C11.6467 9.83333 10.7667 10.1867 10.5333 11.18C10.2733 12.2933 11.02 13.2867 11.6867 13.92C12.04 14.26 12.6 14.26 12.96 13.92C13.6267 13.2867 14.3733 12.3 14.1133 11.1867C13.8933 10.1867 13.0133 9.83333 12.3267 9.83333Z" fill="#266EF1"/>
<path d="M12.3533 12.1333C11.9866 12.1333 11.6866 11.8333 11.6866 11.4667C11.6866 11.1 11.98 10.8 12.3533 10.8H12.36C12.7266 10.8 13.0266 11.1 13.0266 11.4667C13.0266 11.8333 12.72 12.1333 12.3533 12.1333Z" fill="#266EF1"/>
<path d="M8 13.1666H6.21333C5.44 13.1666 4.76667 12.7 4.5 11.98C4.22667 11.26 4.42667 10.4666 5.00667 9.95331L10.3333 5.29331C10.6533 5.01331 10.66 4.63331 10.5667 4.37331C10.4667 4.11331 10.2133 3.83331 9.78667 3.83331H8C7.72667 3.83331 7.5 3.60665 7.5 3.33331C7.5 3.05998 7.72667 2.83331 8 2.83331H9.78667C10.56 2.83331 11.2333 3.29998 11.5 4.01998C11.7733 4.73998 11.5733 5.53331 10.9933 6.04665L5.66667 10.7066C5.34667 10.9866 5.34 11.3666 5.43333 11.6266C5.53333 11.8866 5.78667 12.1666 6.21333 12.1666H8C8.27333 12.1666 8.5 12.3933 8.5 12.6666C8.5 12.94 8.27333 13.1666 8 13.1666Z" fill="#266EF1"/>
<path d="M8 13.1666H6.21333C5.44 13.1666 4.76667 12.7 4.5 11.98C4.22667 11.26 4.42667 10.4666 5.00667 9.95331L10.3333 5.29331C10.6533 5.01331 10.66 4.63331 10.5667 4.37331C10.4667 4.11331 10.2133 3.83331 9.78667 3.83331H8C7.72667 3.83331 7.5 3.60665 7.5 3.33331C7.5 3.05998 7.72667 2.83331 8 2.83331H9.78667C10.56 2.83331 11.2333 3.29998 11.5 4.01998C11.7733 4.73998 11.5733 5.53331 10.9933 6.04665L5.66667 10.7066C5.34667 10.9866 5.34 11.3666 5.43333 11.6266C5.53333 11.8866 5.78667 12.1666 6.21333 12.1666H8C8.27333 12.1666 8.5 12.3933 8.5 12.6666C8.5 12.94 8.27333 13.1666 8 13.1666Z" fill="#266EF1"/>
</svg>
