<svg width="25" height="24" viewBox="0 0 25 24" fill="none" xmlns="http://www.w3.org/2000/svg">
<path d="M19.551 9.50001H19.2245L17.949 6.38001C17.7212 5.82527 17.3294 5.3499 16.8239 5.01492C16.3185 4.67993 15.7224 4.50063 15.1122 4.50001H8.98978C8.2809 4.49802 7.59327 4.7372 7.04429 5.17673C6.49531 5.61625 6.11899 6.22886 5.97958 6.91001L5.44897 9.50001H5.2653C4.45341 9.50001 3.67477 9.81608 3.10068 10.3787C2.52659 10.9413 2.20407 11.7044 2.20407 12.5V15.5C2.20407 15.7652 2.31158 16.0196 2.50294 16.2071C2.69431 16.3947 2.95385 16.5 3.22448 16.5H4.24489C4.24489 17.2957 4.56741 18.0587 5.1415 18.6213C5.71559 19.1839 6.49422 19.5 7.30611 19.5C8.118 19.5 8.89663 19.1839 9.47072 18.6213C10.0448 18.0587 10.3673 17.2957 10.3673 16.5H14.449C14.449 17.2957 14.7715 18.0587 15.3456 18.6213C15.9197 19.1839 16.6983 19.5 17.5102 19.5C18.3221 19.5 19.1007 19.1839 19.6748 18.6213C20.2489 18.0587 20.5714 17.2957 20.5714 16.5H21.5918C21.8625 16.5 22.122 16.3947 22.3134 16.2071C22.5047 16.0196 22.6122 15.7652 22.6122 15.5V12.5C22.6122 11.7044 22.2897 10.9413 21.7156 10.3787C21.1415 9.81608 20.3629 9.50001 19.551 9.50001ZM13.4286 6.50001H15.1122C15.3149 6.50181 15.5123 6.56269 15.6795 6.67488C15.8467 6.78708 15.976 6.94552 16.051 7.13001L17.0204 9.50001H13.4286V6.50001ZM7.97958 7.30001C8.02729 7.07074 8.15552 6.86511 8.34197 6.71894C8.52842 6.57277 8.76127 6.49529 8.99999 6.50001H11.3877V9.50001H7.5306L7.97958 7.30001ZM7.30611 17.5C7.10429 17.5 6.90701 17.4414 6.7392 17.3315C6.5714 17.2216 6.44061 17.0654 6.36338 16.8827C6.28614 16.7 6.26594 16.4989 6.30531 16.3049C6.34468 16.1109 6.44187 15.9328 6.58457 15.7929C6.72728 15.6531 6.9091 15.5578 7.10704 15.5192C7.30498 15.4806 7.51015 15.5004 7.6966 15.5761C7.88306 15.6518 8.04243 15.78 8.15455 15.9444C8.26667 16.1089 8.32652 16.3022 8.32652 16.5C8.32652 16.7652 8.21901 17.0196 8.02765 17.2071C7.83628 17.3947 7.57674 17.5 7.30611 17.5ZM17.5102 17.5C17.3084 17.5 17.1111 17.4414 16.9433 17.3315C16.7755 17.2216 16.6447 17.0654 16.5675 16.8827C16.4902 16.7 16.47 16.4989 16.5094 16.3049C16.5488 16.1109 16.6459 15.9328 16.7887 15.7929C16.9314 15.6531 17.1132 15.5578 17.3111 15.5192C17.5091 15.4806 17.7142 15.5004 17.9007 15.5761C18.0871 15.6518 18.2465 15.78 18.3586 15.9444C18.4708 16.1089 18.5306 16.3022 18.5306 16.5C18.5306 16.7652 18.4231 17.0196 18.2317 17.2071C18.0404 17.3947 17.7808 17.5 17.5102 17.5ZM20.5714 14.5H19.7755C19.4886 14.1907 19.1389 13.9435 18.7487 13.7743C18.3586 13.6052 17.9368 13.5178 17.5102 13.5178C17.0836 13.5178 16.6617 13.6052 16.2716 13.7743C15.8815 13.9435 15.5318 14.1907 15.2449 14.5H9.57142C9.2845 14.1907 8.93477 13.9435 8.54467 13.7743C8.15456 13.6052 7.73269 13.5178 7.30611 13.5178C6.87953 13.5178 6.45766 13.6052 6.06756 13.7743C5.67745 13.9435 5.32773 14.1907 5.04081 14.5H4.24489V12.5C4.24489 12.2348 4.35239 11.9804 4.54376 11.7929C4.73512 11.6054 4.99467 11.5 5.2653 11.5H19.551C19.8216 11.5 20.0812 11.6054 20.2725 11.7929C20.4639 11.9804 20.5714 12.2348 20.5714 12.5V14.5Z" fill="#266EF1"/>
</svg>
