<svg width="10" height="10" viewBox="0 0 10 10" fill="none" xmlns="http://www.w3.org/2000/svg">
<path fill-rule="evenodd" clip-rule="evenodd" d="M4.72182 8.73917L2.55776 9.92809C2.26545 10.0887 1.9039 9.97125 1.75022 9.66578C1.68903 9.54414 1.66791 9.40481 1.69014 9.26936L2.10344 6.75117C2.13671 6.54847 2.0724 6.34163 1.93147 6.19807L0.180701 4.41468C-0.0557847 4.17379 -0.0606236 3.77817 0.169893 3.53104C0.261686 3.43263 0.381963 3.36859 0.512102 3.34883L2.9316 2.98143C3.12636 2.95185 3.29473 2.82402 3.38183 2.63959L4.46386 0.34847C4.61002 0.0389949 4.96858 -0.0880679 5.26472 0.0646671C5.38265 0.125487 5.4781 0.225235 5.5363 0.34847L6.61833 2.63959C6.70544 2.82402 6.8738 2.95185 7.06857 2.98143L9.48806 3.34883C9.81488 3.39845 10.0413 3.71554 9.99383 4.05707C9.97492 4.19307 9.91363 4.31876 9.81946 4.41468L8.0687 6.19807C7.92777 6.34163 7.86346 6.54847 7.89673 6.75117L8.31003 9.26936C8.36585 9.6095 8.14724 9.93254 7.82175 9.99088C7.69213 10.0141 7.55881 9.99204 7.44241 9.92809L5.27834 8.73917C5.10414 8.64346 4.89603 8.64346 4.72182 8.73917Z" fill="#F5BA3A"/>
</svg>
