<svg width="24" height="25" viewBox="0 0 24 25" fill="none" xmlns="http://www.w3.org/2000/svg">
<path d="M20.04 9.96903C20.04 9.55482 19.7042 9.21903 19.29 9.21903C18.8758 9.21903 18.54 9.55482 18.54 9.96903H20.04ZM5.45999 9.96903C5.45999 9.55482 5.12421 9.21903 4.70999 9.21903C4.29578 9.21903 3.95999 9.55482 3.95999 9.96903H5.45999ZM14.5132 20.9571L14.3408 20.2272L14.5132 20.9571ZM9.48673 20.9571L9.65916 20.2272L9.48673 20.9571ZM14.8284 5.26423L14.2962 5.79267L14.8284 5.26423ZM20.4678 12.0082C20.7596 12.3021 21.2345 12.3038 21.5284 12.0119C21.8224 11.7201 21.8241 11.2452 21.5322 10.9513L20.4678 12.0082ZM9.17157 5.26423L9.70378 5.79267L9.17157 5.26423ZM2.46779 10.9513C2.17594 11.2452 2.17762 11.7201 2.47155 12.0119C2.76548 12.3038 3.24035 12.3021 3.53221 12.0082L2.46779 10.9513ZM9.71842 18.5703L8.9813 18.4319L8.9813 18.4319L9.71842 18.5703ZM9.73776 18.4673L10.4749 18.6056L10.4749 18.6056L9.73776 18.4673ZM14.2622 18.4673L13.5251 18.6056V18.6056L14.2622 18.4673ZM14.2816 18.5703L15.0187 18.4319V18.4319L14.2816 18.5703ZM13.9918 20.8019L13.3146 20.4796V20.4796L13.9918 20.8019ZM13.1978 20.725C13.0198 21.099 13.1787 21.5465 13.5527 21.7245C13.9267 21.9025 14.3742 21.7436 14.5522 21.3696L13.1978 20.725ZM10.0082 20.8019L9.331 21.1242L9.331 21.1242L10.0082 20.8019ZM9.44778 21.3696C9.62577 21.7436 10.0733 21.9025 10.4473 21.7245C10.8213 21.5465 10.9802 21.099 10.8022 20.725L9.44778 21.3696ZM11.3611 16.6926L11.1605 15.9699H11.1605L11.3611 16.6926ZM12.6389 16.6926L12.8395 15.9699H12.8395L12.6389 16.6926ZM18.54 9.96903V14.8874H20.04V9.96903H18.54ZM5.45999 14.8874V9.96903H3.95999V14.8874H5.45999ZM14.3408 20.2272C12.8011 20.5909 11.1988 20.5909 9.65916 20.2272L9.3143 21.687C11.0808 22.1043 12.9192 22.1043 14.6857 21.687L14.3408 20.2272ZM9.65916 20.2272C7.2026 19.6469 5.45999 17.4377 5.45999 14.8874H3.95999C3.95999 18.1265 6.17421 20.9452 9.3143 21.687L9.65916 20.2272ZM14.6857 21.687C17.8258 20.9452 20.04 18.1265 20.04 14.8874H18.54C18.54 17.4377 16.7974 19.6469 14.3408 20.2272L14.6857 21.687ZM14.2962 5.79267L20.4678 12.0082L21.5322 10.9513L15.3606 4.73578L14.2962 5.79267ZM8.63937 4.73578L2.46779 10.9513L3.53221 12.0082L9.70378 5.79267L8.63937 4.73578ZM15.3606 4.73578C14.7089 4.07945 14.1681 3.53246 13.6818 3.15885C13.1785 2.77211 12.6458 2.5 12 2.5V4C12.1827 4 12.3974 4.06359 12.7679 4.34826C13.1555 4.64606 13.6146 5.10618 14.2962 5.79267L15.3606 4.73578ZM9.70378 5.79267C10.3854 5.10618 10.8445 4.64606 11.2321 4.34826C11.6026 4.06359 11.8173 4 12 4V2.5C11.3542 2.5 10.8215 2.77211 10.3182 3.15885C9.83194 3.53246 9.29106 4.07945 8.63937 4.73578L9.70378 5.79267ZM10.4555 18.7087L10.4749 18.6056L9.00064 18.3289L8.9813 18.4319L10.4555 18.7087ZM13.5251 18.6056L13.5445 18.7087L15.0187 18.4319L14.9994 18.3289L13.5251 18.6056ZM13.3146 20.4796L13.1978 20.725L14.5522 21.3696L14.669 21.1242L13.3146 20.4796ZM9.331 21.1242L9.44778 21.3696L10.8022 20.725L10.6854 20.4796L9.331 21.1242ZM13.5445 18.7087C13.6571 19.3088 13.5764 19.9293 13.3146 20.4796L14.669 21.1242C15.0675 20.2869 15.1899 19.3437 15.0187 18.4319L13.5445 18.7087ZM8.9813 18.4319C8.81015 19.3437 8.93254 20.2869 9.331 21.1242L10.6854 20.4796C10.4236 19.9293 10.3429 19.3088 10.4556 18.7087L8.9813 18.4319ZM11.5616 17.4152C11.8485 17.3356 12.1515 17.3356 12.4384 17.4152L12.8395 15.9699C12.2901 15.8174 11.7099 15.8174 11.1605 15.9699L11.5616 17.4152ZM14.9994 18.3289C14.7865 17.1949 13.9504 16.2781 12.8395 15.9699L12.4384 17.4152C12.9935 17.5693 13.417 18.0294 13.5251 18.6056L14.9994 18.3289ZM10.4749 18.6056C10.583 18.0294 11.0065 17.5693 11.5616 17.4152L11.1605 15.9699C10.0496 16.2781 9.21349 17.1949 9.00064 18.3289L10.4749 18.6056Z" fill="white"/>
</svg>
