<svg width="16" height="16" viewBox="0 0 16 16" fill="none" xmlns="http://www.w3.org/2000/svg">
<path id="Vector" d="M15.2901 11.8702C14.9398 11.5236 14.4908 11.2933 14.0045 11.2106C13.5181 11.1278 13.018 11.1967 12.5723 11.4078L11.653 10.4991C13.5364 8.47236 14.9572 6.06286 15.8176 3.43631C15.9809 2.98254 16.0115 2.49183 15.9058 2.0214C15.8001 1.55096 15.5625 1.12018 15.2206 0.779286C14.8788 0.438389 14.4468 0.201421 13.9751 0.0960118C13.5034 -0.00939785 13.0113 0.0210938 12.5563 0.183932C9.9225 1.04204 7.50635 2.45891 5.47406 4.33709L4.5628 3.42037C4.75211 3.02425 4.82849 2.58384 4.78357 2.14733C4.73865 1.71082 4.57417 1.29505 4.30813 0.945538C4.04209 0.596026 3.68475 0.326247 3.27524 0.165737C2.86572 0.00522699 2.41981 -0.0398262 1.98634 0.0355099C1.55286 0.110846 1.14852 0.303667 0.817594 0.592862C0.486666 0.882058 0.241904 1.25648 0.110105 1.67513C-0.0216932 2.09379 -0.0354467 2.54053 0.0703503 2.96646C0.176147 3.39239 0.397416 3.78108 0.709932 4.08997C1.15922 4.53859 1.76876 4.79091 2.40455 4.79147C2.75914 4.78817 3.10859 4.7065 3.42772 4.55232L4.34697 5.46107C2.46362 7.48778 1.04283 9.89729 0.182361 12.5238C0.0324893 12.977 0.0114126 13.4626 0.121469 13.927C0.231525 14.3913 0.468412 14.8162 0.805854 15.1544C1.03436 15.3974 1.30878 15.5929 1.61333 15.7297C1.91787 15.8665 2.24653 15.9419 2.58041 15.9516C2.87328 15.9488 3.16415 15.9032 3.44371 15.8161C6.0775 14.958 8.49365 13.5411 10.5259 11.6629L11.4372 12.5796C11.2479 12.9757 11.1715 13.4162 11.2164 13.8527C11.2613 14.2892 11.4258 14.705 11.6919 15.0545C11.9579 15.404 12.3152 15.6738 12.7248 15.8343C13.1343 15.9948 13.5802 16.0398 14.0137 15.9645C14.4471 15.8892 14.8515 15.6963 15.1824 15.4071C15.5133 15.1179 15.7581 14.7435 15.8899 14.3249C16.0217 13.9062 16.0354 13.4595 15.9297 13.0335C15.8239 12.6076 15.6026 12.2189 15.2901 11.91V11.8702ZM2.97209 2.95802C2.82263 3.10812 2.6195 3.19287 2.40738 3.19362C2.19526 3.19437 1.99153 3.11105 1.84101 2.962C1.69049 2.81295 1.60551 2.61038 1.60476 2.39884C1.60401 2.18731 1.68755 1.98414 1.83701 1.83403C1.98647 1.68393 2.18961 1.59918 2.40173 1.59843C2.61385 1.59768 2.81757 1.681 2.96809 1.83005C3.11861 1.9791 3.2036 2.18167 3.20435 2.39321C3.2051 2.60474 3.12155 2.80791 2.97209 2.95802ZM13.0439 1.70649C13.1652 1.66664 13.2919 1.64515 13.4196 1.64272C13.5427 1.64172 13.6647 1.66516 13.7787 1.7117C13.8926 1.75823 13.996 1.82692 14.0831 1.91375C14.2133 2.04865 14.3021 2.21794 14.339 2.40158C14.3758 2.58523 14.3591 2.77556 14.2909 2.95005C13.8686 4.24445 13.2972 5.48567 12.5883 6.64883L9.33491 3.40442C10.5013 2.69739 11.7459 2.12761 13.0439 1.70649ZM2.9561 14.2537C2.78179 14.3232 2.59083 14.3403 2.40689 14.3026C2.22296 14.265 2.05414 14.1744 1.92138 14.042C1.78861 13.9096 1.69772 13.7412 1.65999 13.5578C1.62226 13.3744 1.63934 13.1839 1.70912 13.0101C2.1314 11.7157 2.70275 10.4745 3.41173 9.31131L6.66509 12.5557C5.49872 13.2628 4.25408 13.8325 2.9561 14.2537ZM8 11.639L4.33099 7.98007C4.6872 7.49793 5.06876 7.03494 5.47406 6.59303L9.39886 10.507C8.95294 10.9087 8.486 11.2866 8 11.639ZM10.518 9.37509L6.60114 5.46107C7.04686 5.05667 7.5138 4.67616 8 4.32115L11.677 7.98804C11.3182 8.47038 10.934 8.93337 10.5259 9.37509H10.518ZM14.155 14.158C14.081 14.2323 13.993 14.2914 13.8961 14.3318C13.7992 14.3722 13.6953 14.3932 13.5903 14.3936C13.4852 14.394 13.3812 14.3737 13.284 14.334C13.1868 14.2942 13.0984 14.2358 13.0239 14.162C12.9494 14.0882 12.8902 14.0005 12.8496 13.9038C12.8091 13.8072 12.788 13.7036 12.7877 13.5988C12.7873 13.4941 12.8076 13.3903 12.8475 13.2934C12.8873 13.1965 12.9459 13.1083 13.0199 13.034C13.1697 12.8855 13.3723 12.8022 13.5835 12.8022C13.7946 12.8022 13.9972 12.8855 14.147 13.034C14.2886 13.1798 14.369 13.374 14.372 13.5769C14.375 13.7798 14.3002 13.9762 14.163 14.1261L14.155 14.158Z" fill="#266EF1"/>
</svg>
