<svg width="24" height="25" viewBox="0 0 24 25" fill="none" xmlns="http://www.w3.org/2000/svg">
<path d="M8.66667 12.6667H6.44444V14.6667H8.66667V12.6667ZM13.1111 12.6667H10.8889V14.6667H13.1111V12.6667ZM17.5556 12.6667H15.3333V14.6667H17.5556V12.6667ZM19.7778 5.66669H18.6667V3.66669H16.4444V5.66669H7.55556V3.66669H5.33333V5.66669H4.22222C2.98889 5.66669 2.01111 6.56669 2.01111 7.66669L2 21.6667C2 22.7667 2.98889 23.6667 4.22222 23.6667H19.7778C21 23.6667 22 22.7667 22 21.6667V7.66669C22 6.56669 21 5.66669 19.7778 5.66669ZM19.7778 21.6667H4.22222V10.6667H19.7778V21.6667Z" fill="#292D32" fill-opacity="0.87"/>
</svg>
